<svg xmlns="http://www.w3.org/2000/svg" xml:space="preserve" viewBox="0 0 100 100"><path d="M36.9 65.7c.1 1.6-.2 5-1.7 12.1-1 4.8-2.2 9-2.2 9.1s0 .2-.1.3c-.2 1.8.4 3.5 1.6 4.9s2.9 2.1 4.7 2.1h21.4c1.8 0 3.5-.8 4.7-2.1s1.8-3.1 1.6-4.9c0-.1 0-.2-.1-.3 0 0-1.2-4.2-2.3-9-1.6-7.1-1.9-10.5-1.8-12 .2-4.3 2.4-11.4 4.5-18.3 2.6-8.4 5.2-17.1 5-22.6-.1-4-3.3-13.3-4.7-17.1-.4-1.1-1.4-1.8-2.6-1.8H35c-1.1 0-2.2.7-2.6 1.8-1.1 3-4.6 13-4.7 17.1-.2 5.5 2.4 14.3 4.9 22.7 2 6.7 4.1 13.8 4.3 18M31.7 25c.1-2.7 2.2-9.6 4.2-15.1h28.2c1.9 5.5 4.1 12.4 4.2 15.1.2 4.8-2.4 13.2-4.9 21.3-2.3 7.5-4.4 14.5-4.6 19.2-.1 2.3.3 5.9 1.4 10.7H39.7c1-4.8 1.4-8.4 1.3-10.7-.2-4.7-2.3-11.7-4.5-19.1-2.5-8.1-4.9-16.6-4.8-21.4"/></svg>