<svg xmlns="http://www.w3.org/2000/svg" xml:space="preserve" viewBox="0 0 100 100"><path d="M66.6 18.6c-9 0-16.4 6.8-17.4 15.5H25.1c-.9 0-1.7.6-1.9 1.5-1.7 6.1-4.8 18.2-6.4 26.7-.5 2.5-.8 4.5-.9 5.9-.2 2.4.5 4.8 1.9 6.7 1 1.3 2.5 3 4.2 4.6 1.3 1.2 3 1.9 4.9 1.9h37.9c1.8 0 3.5-.7 4.9-1.9 1.7-1.6 3.2-3.2 4.2-4.6 1.5-1.9 2.1-4.3 1.9-6.7-.1-1.5-.4-3.5-.9-5.9-.6-3-1.3-6.4-2.1-9.8 6.6-2.5 11.3-8.9 11.3-16.3 0-9.7-7.8-17.6-17.5-17.6M26.7 38.1h22.5c1 8.7 8.4 15.5 17.4 15.5.8 0 1.6-.1 2.4-.2.7 3.1 1.4 6.1 1.9 8.8-.1.1-.1.2-.2.2-.9 1.2-2.2 2.6-3.8 4.1-.6.5-1.3.8-2.1.8H26.9c-.8 0-1.6-.3-2.1-.8-1.5-1.4-2.9-2.9-3.8-4.1l-.2-.2c1.6-7.6 4.2-17.9 5.9-24.1m26.6 0h11.8c.8 3.1 1.9 7.1 3 11.4-.5 0-.9.1-1.4.1-6.9 0-12.5-5-13.4-11.5m17.4 34.4c-.9 1.2-2.2 2.6-3.8 4.1-.6.5-1.3.8-2.1.8H26.9c-.8 0-1.6-.3-2.1-.8-1.5-1.4-2.9-2.9-3.8-4.1-.9-1.1-1.3-2.5-1.1-3.9 0-.3.1-.7.1-1.1l.6.6.3.3c.4.4.8.7 1.2 1.1 1.3 1.2 3 1.9 4.9 1.9h37.9c1.8 0 3.5-.7 4.9-1.9.4-.4.8-.7 1.1-1.1l.3-.3.6-.6c.1.4.1.8.1 1.1.1 1.4-.4 2.8-1.2 3.9m1.2-23.9c-1.2-5-2.5-9.8-3.4-13-.2-.9-1-1.5-1.9-1.5H53.3c1-6.5 6.6-11.5 13.3-11.5 7.4 0 13.5 6.1 13.5 13.5 0 5.6-3.4 10.4-8.2 12.5"/></svg>