<svg xmlns="http://www.w3.org/2000/svg" xml:space="preserve" viewBox="0 0 100 100"><path d="M76.1 6.4c-7.3 0-13.3 5.4-14.3 12.5H11.4c-.8 0-1.5.5-1.8 1.2s-.1 1.6.4 2.2l31.8 32v30.2l-16.9 4c-1.3.3-2.1 1.4-1.9 2.7s1.2 2.2 2.5 2.2h36.7c1.3 0 2.3-.9 2.5-2.2.1-1.3-.7-2.4-1.9-2.7l-16.9-4V54.4l21.7-21.9c2.4 1.8 5.4 2.9 8.7 2.9 8 0 14.5-6.5 14.5-14.5S84.1 6.4 76.1 6.4M43.8 50.7 16.2 22.9h45.6c.4 2.5 1.3 4.8 2.8 6.8zm22-27.8h5.5l-3.9 3.9c-.7-1.2-1.3-2.5-1.6-3.9m10.3 8.5c-2.1 0-4.1-.7-5.8-1.8l7.2-7.3c.6-.6.7-1.4.4-2.2-.3-.7-1-1.2-1.8-1.2H65.8c.9-4.8 5.2-8.5 10.3-8.5 5.8 0 10.5 4.7 10.5 10.5s-4.7 10.5-10.5 10.5"/></svg>