<svg
  xmlns="http://www.w3.org/2000/svg"
  xml:space="preserve"
  viewBox="0 0 100 100"
>
  <path
    d="M77.9 14.7c0-1.1-.9-2-2-2H24.1c-1.1 0-2 .9-2 2v10.4c0 3.8 3.1 7 7 7h3.7c1.6 0 3 1.3 3 3 0 7.2 5.3 13.1 12.2 14.1v29.2l-16.9 4c-1.3.3-2.1 1.4-1.9 2.7s1.2 2.2 2.5 2.2h36.7c1.3 0 2.3-.9 2.5-2.2s-.6-2.4-1.9-2.7l-16.9-4V49.2c6.9-1 12.2-6.9 12.2-14.1 0-1.6 1.3-3 3-3H71c3.8 0 7-3.1 7-7V14.7zm-4 10.4c0 1.6-1.3 3-3 3h-3.7c-3.8 0-7 3.1-7 7 0 5.6-4.6 10.2-10.2 10.2s-10.2-4.6-10.2-10.2c0-3.8-3.1-7-7-7h-3.7c-1.6 0-3-1.3-3-3v-8.4h47.7v8.4z"
  />
</svg>
