<svg xmlns="http://www.w3.org/2000/svg" xml:space="preserve" viewBox="11.27 12.3 77.53 75.4"><path d="M69.1 12.3C59 12.3 50.6 20 49.6 29.9H13.3c-.6 0-1.1.2-1.5.7-.4.4-.6 1-.5 1.6l4.5 40.5 1.5 13.2c.1 1 1 1.8 2 1.8h43.8c1 0 1.9-.8 2-1.8l1.5-13.2L69 51.6h.2c10.8 0 19.6-8.8 19.6-19.6s-8.9-19.7-19.7-19.7m-6.3 58.1H19.6l-4.1-36.5h34c.9 8.5 7.2 15.4 15.4 17.2zm2.6-23.3c-6.2-1.5-10.9-6.7-11.8-13.2h13.2zm3.9.4L71 32.1c.1-.6-.1-1.1-.5-1.6-.4-.4-.9-.7-1.5-.7H53.6c1-7.7 7.5-13.6 15.5-13.6 8.6 0 15.6 7 15.6 15.6 0 8.7-6.9 15.6-15.4 15.7"/></svg>