<svg xmlns="http://www.w3.org/2000/svg" xml:space="preserve" viewBox="15.87 18.6 68.23 62.8"><path d="M66.6 18.6c-9 0-16.4 6.8-17.4 15.5H25.1c-.9 0-1.7.6-1.9 1.5-2.1 7.5-6.7 25.3-7.3 32.6-.2 2.4.5 4.8 1.9 6.7 1 1.3 2.5 3 4.2 4.6 1.3 1.2 3 1.9 4.9 1.9h37.9c1.8 0 3.5-.7 4.9-1.9 1.7-1.6 3.2-3.2 4.2-4.6 1.5-1.9 2.1-4.3 1.9-6.7-.3-3.5-1.5-9.6-3-15.7 6.6-2.5 11.3-8.9 11.3-16.3 0-9.7-7.8-17.6-17.5-17.6m4.1 53.9c-.9 1.2-2.2 2.6-3.8 4.1-.6.5-1.3.8-2.1.8H26.9c-.8 0-1.6-.3-2.1-.8-1.5-1.4-2.9-2.9-3.8-4.1-.9-1.1-1.3-2.5-1.1-3.9.5-6 4.2-21.1 6.8-30.4h22.5c1 8.7 8.4 15.5 17.4 15.5.8 0 1.6-.1 2.4-.2 1.4 6.1 2.6 11.9 2.9 15.1.1 1.4-.4 2.8-1.2 3.9M53.3 38.1h11.8c.9 3.3 2 7.3 3 11.4-.5 0-.9.1-1.4.1-6.9 0-12.5-5-13.4-11.5m18.6 10.5c-1.2-5.1-2.5-9.9-3.4-13-.2-.9-1-1.5-1.9-1.5H53.3c1-6.5 6.6-11.5 13.3-11.5 7.4 0 13.5 6.1 13.5 13.5 0 5.6-3.4 10.4-8.2 12.5"/></svg>