<svg xmlns="http://www.w3.org/2000/svg" xml:space="preserve" viewBox="26.16 11.3 47.68 77.3"><path d="M72.2 43.8c1.2-1.6 1.8-3.5 1.6-5.5-.5-5.7-4.1-19.7-5.7-25.5-.2-.9-1-1.5-1.9-1.5H33.8c-.9 0-1.7.6-1.9 1.5-1.6 5.9-5.2 19.8-5.7 25.5-.2 2 .4 3.9 1.6 5.5 2.9 3.8 11.6 11.7 20.4 12.7v23.2l-16.9 4c-1.3.3-2.1 1.4-1.9 2.7.1 1.3 1.2 2.2 2.5 2.2h36.7c1.3 0 2.3-.9 2.5-2.2.1-1.3-.7-2.4-1.9-2.7l-16.9-4V56.5c8.5-1.2 17.1-9 19.9-12.7M50 52.7c-7.4 0-16-7.3-19-11.3-.6-.8-.9-1.8-.8-2.8.4-4.6 3.2-16.1 5.2-23.3h29.3c2 7.3 4.8 18.8 5.2 23.3.1 1-.2 2-.8 2.8C66 45.3 57.4 52.7 50 52.7"/></svg>