<svg xmlns="http://www.w3.org/2000/svg" xml:space="preserve" viewBox="0 0 100 100"><path d="M37.9 65.7c.1 2.4-.5 6.6-1.7 12.3-1.1 4.8-2.2 9.1-2.2 9.1v.2c-.2 1.5.3 3 1.3 4.1s2.4 1.8 3.9 1.8h21.4c1.5 0 3-.6 4-1.8 1-1.1 1.5-2.6 1.3-4.1v-.2s-1.2-4.3-2.3-9.1c-1.3-5.7-1.9-10-1.8-12.3.2-4.4 2.3-11.2 4.5-18.5 2.5-8.3 5.2-17 5-22.3-.1-4-3.6-13.9-4.6-16.8-.2-.7-.9-1.1-1.6-1.1H35c-.7 0-1.4.5-1.6 1.1-1.1 2.9-4.5 12.8-4.6 16.8-.2 5.4 2.4 14 4.9 22.4 2 7.2 4 14 4.2 18.4m23.9 13.5c1 4.2 2 7.7 2.2 8.3.1.9-.2 1.8-.8 2.5s-1.5 1.1-2.5 1.1H39.3c-.9 0-1.8-.4-2.5-1.1-.6-.7-.9-1.6-.8-2.5.2-.6 1.1-4.2 2.1-8.4h23.7zM30.7 24.9c.1-3.7 3.6-13.6 4.5-16h29.6c.9 2.4 4.3 12.4 4.5 16 .2 5-2.4 13.5-4.9 21.6-2.2 7.4-4.4 14.4-4.6 19-.1 2.4.4 6.3 1.6 11.6h-23c1.1-5.3 1.6-9.2 1.5-11.6-.2-4.5-2.2-11.5-4.4-18.8-2.4-8.2-4.9-16.8-4.8-21.8"/><path d="M37.4 19.3h25.2c.6 0 1-.4 1-1s-.4-1-1-1H37.4c-.6 0-1 .4-1 1s.5 1 1 1"/></svg>