<svg xmlns="http://www.w3.org/2000/svg" xml:space="preserve" viewBox="37.55 7.5 25 85"><path d="M38.5 89.6c-.7.3-1.1 1-.9 1.7s.7 1.2 1.5 1.2H61c.7 0 1.3-.5 1.5-1.2s-.2-1.4-.9-1.7L51 85.5V60.4c5.6-1.3 9.8-12.1 9.8-25.5 0-5.8-.8-16.4-1.9-26.5-.1-.5-.5-.9-1-.9H41.7c-.5 0-.9.4-1 .9-1.1 10.1-1.9 20.7-1.9 26.5 0 13.7 4.4 24.6 10.2 25.6v25zm2.3-54.8c0-5.5.7-15.6 1.8-25.4H57c1.1 9.7 1.8 19.8 1.8 25.4 0 14.2-4.7 23.7-9 23.7s-9-9.5-9-23.7M50 87.2l8.3 3.3H41.7z"/><path d="M56.1 20.7c0-.6-.4-1-1-1h-10c-.6 0-1 .4-1 1s.4 1 1 1h10c.5 0 1-.4 1-1"/></svg>