<svg xmlns="http://www.w3.org/2000/svg" xml:space="preserve" viewBox="0 0 100 100"><path d="M76.3 20.9c.1-.3.1-.7-.1-.9-.2-.3-.5-.4-.8-.4H24.6c-.3 0-.6.2-.8.4-.2.3-.2.6-.1.9 4 9.4 22.1 16.1 25.4 17.2v35.1l-17.7 4.2c-.8.2-1.2.9-1.1 1.6.1.8.7 1.3 1.5 1.3h36.7c.8 0 1.4-.6 1.5-1.3.1-.8-.4-1.5-1.1-1.6l-17.7-4.2V38.1c4-1.5 21.2-8 25.1-17.2m-12 57.5H36.1L50.2 75zM50 36.4c-2.5-.9-18.9-6.8-23.7-14.8h47.4c-4.8 8-21.2 13.9-23.7 14.8"/><path d="M64.9 24.5H35.6c-.6 0-1 .4-1 1s.4 1 1 1h29.3c.6 0 1-.4 1-1s-.4-1-1-1"/></svg>