<svg xmlns="http://www.w3.org/2000/svg" xml:space="preserve" viewBox="0 0 100 100"><path d="M76.9 14.7c0-.6-.4-1-1-1H24.1c-.6 0-1 .4-1 1v10.4c0 3.3 2.7 6 6 6h3.7c2.2 0 4 1.8 4 4 0 7 5.4 12.7 12.2 13.2v30.9l-17.7 4.2c-.8.2-1.2.9-1.1 1.6.1.8.7 1.3 1.5 1.3h36.7c.8 0 1.4-.6 1.5-1.3.1-.8-.4-1.5-1.1-1.6L51 79.1V48.3c6.8-.5 12.2-6.2 12.2-13.2 0-2.2 1.8-4 4-4h3.7c3.3 0 6-2.7 6-6zM64.1 84.3H35.9L50 81zm10.8-59.2c0 2.2-1.8 4-4 4h-3.7c-3.3 0-6 2.7-6 6 0 6.2-5 11.2-11.2 11.2s-11.2-5-11.2-11.2c0-3.3-2.7-6-6-6h-3.7c-2.2 0-4-1.8-4-4v-9.4h49.7v9.4z"/><path d="M29 22.4h42c.6 0 1-.4 1-1s-.4-1-1-1H29c-.6 0-1 .4-1 1s.5 1 1 1"/></svg>