<svg xmlns="http://www.w3.org/2000/svg" xml:space="preserve" viewBox="0 0 100 100"><path d="m42.8 85.4-17.7 4.2c-.8.2-1.2.9-1.1 1.6.1.8.7 1.3 1.5 1.3h36.7c.8 0 1.4-.6 1.5-1.3.1-.8-.4-1.5-1.1-1.6l-17.7-4.2V54l22.5-22.7c2.3 2 5.4 3.2 8.7 3.2 7.4 0 13.5-6 13.5-13.5S83.5 7.4 76 7.4c-7.1 0-12.9 5.5-13.4 12.5H11.5c-.4 0-.8.2-.9.6s-.1.8.2 1.1l32 32.3zm15.1 5.2H29.7l14.1-3.4zM76 9.4c6.3 0 11.5 5.1 11.5 11.5S82.4 32.4 76 32.4c-2.8 0-5.3-1-7.3-2.6l8.1-8.2c.3-.3.4-.7.2-1.1s-.5-.6-.9-.6H64.6C65.1 14.1 70 9.4 76 9.4m-2.2 12.5-6.4 6.5c-1.5-1.8-2.5-4-2.7-6.5zm-59.9 0h48.7c.2 3 1.4 5.8 3.3 7.9L43.8 52.1z"/><path d="M59.8 31.8c0-.6-.4-1-1-1H28.9c-.6 0-1 .4-1 1s.4 1 1 1h29.9c.6 0 1-.5 1-1"/></svg>