<svg xmlns="http://www.w3.org/2000/svg" xml:space="preserve" viewBox="0 0 100 100"><path d="M71 34.7c0-4.7-1.5-13.4-3.9-21.6-.1-.4-.5-.7-1-.7H33.8c-.4 0-.8.3-1 .7C30.6 21.3 29 30 29 34.7c0 11.3 9 20.5 20.2 20.9v24.9l-17.7 4.2c-.8.2-1.2.9-1.1 1.6.1.8.7 1.3 1.5 1.3h36.7c.8 0 1.4-.6 1.5-1.3.1-.8-.4-1.5-1.1-1.6l-17.7-4.2V55.6C62.2 55 71 45.9 71 34.7m-6.7 51H36.1l14.1-3.4zM50 53.7c-10.5 0-19-8.5-19-19 0-4.4 1.4-12.5 3.6-20.4h30.8c2.1 7.8 3.6 15.9 3.6 20.4 0 10.5-8.5 19-19 19"/><path d="M65.9 33.7c0-.6-.4-1-1-1H35.6c-.6 0-1 .4-1 1s.4 1 1 1h29.3c.6 0 1-.4 1-1"/></svg>