<svg xmlns="http://www.w3.org/2000/svg" xml:space="preserve" viewBox="0 0 100 100"><path d="M69 13.7c-9.7 0-17.7 7.4-18.5 16.9h-37c-.3 0-.6.1-.7.3s-.3.5-.2.8l4.5 40.5 1.5 13.2c.1.5.5.9 1 .9h43.8c.5 0 .9-.4 1-.9l1.5-13.2L68 50.9h.9c10.3 0 18.6-8.4 18.6-18.6S79.2 13.7 69 13.7m-6.7 70.6h-42L19 73.1h44.5zm1.5-13.2h-45l-4.3-38.5h35.8c.1 9.1 6.9 16.7 15.7 18.1zm2.5-22.4c-7.8-1.3-13.8-8-13.9-16.1h15.7zm2.7.2h-.7l1.9-17.2c0-.3-.1-.6-.2-.8s-.5-.3-.7-.3H52.4c.9-8.4 7.9-14.9 16.5-14.9 9.2 0 16.6 7.5 16.6 16.6S78.1 48.9 69 48.9"/><path d="M21.4 55.8c0 .6.4 1 1 1h37.9c.6 0 1-.4 1-1s-.4-1-1-1H22.4c-.6 0-1 .4-1 1"/></svg>