<svg xmlns="http://www.w3.org/2000/svg" xml:space="preserve" viewBox="0 0 100 100"><path d="M66.7 19.6c-8.8 0-15.9 6.9-16.5 15.5H25c-.4 0-.8.3-1 .7-1.7 6.1-4.8 18.1-6.4 26.6-.5 2.4-.8 4.4-.9 5.9-.2 2.2.4 4.3 1.7 6 1 1.3 2.4 2.9 4.1 4.4 1.1 1.1 2.6 1.6 4.2 1.6h37.9c1.6 0 3-.6 4.2-1.6 1.6-1.5 3.1-3.1 4.1-4.4 1.3-1.7 1.9-3.9 1.7-6-.1-1.4-.4-3.4-.9-5.9-.6-3.2-1.4-6.8-2.3-10.5 6.8-2.1 11.7-8.4 11.7-15.8.2-9.1-7.3-16.5-16.4-16.5m5.5 45.7q0-.15 0 0c.3 1.2.4 2.3.5 3.2.1 1.7-.3 3.3-1.3 4.6-.9 1.2-2.3 2.7-3.9 4.2-.8.7-1.8 1.1-2.8 1.1H26.8c-1.1 0-2.1-.4-2.8-1.1-1.6-1.5-2.9-3-3.9-4.2-1-1.3-1.5-3-1.3-4.6.1-.9.2-2 .4-3.3l.1.1c.1.1.1.2.2.2.2.3.4.5.7.8l.3.3c.2.3.5.5.7.8l.3.3 1.1 1.1c1.1 1.1 2.6 1.6 4.2 1.6h37.9c1.6 0 3-.6 4.2-1.6l1.1-1.1.3-.3c.3-.3.5-.5.7-.8l.3-.3c.2-.3.5-.5.7-.7 0-.2.1-.2.2-.3m-.4-2.8c-.1.2-.3.4-.4.6-.9 1.2-2.3 2.7-3.9 4.2-.8.7-1.8 1.1-2.8 1.1H26.8c-1.1 0-2.1-.4-2.8-1.1-1.6-1.5-2.9-3-3.9-4.2-.1-.2-.3-.4-.4-.6 1.5-8 4.4-19.2 6.1-25.3h24.5c.5 8.6 7.7 15.5 16.5 15.5 1 0 1.9-.1 2.8-.3.8 3.5 1.6 7 2.2 10.1M52.3 37.1h13.4c.9 3.4 2.2 8.3 3.4 13.3-.8.1-1.6.2-2.4.2-7.6 0-13.9-5.9-14.4-13.5M71.1 50c-1.3-5.5-2.7-10.7-3.7-14.1-.1-.4-.5-.7-1-.7H52.3c.5-7.5 6.8-13.5 14.5-13.5 8 0 14.5 6.5 14.5 14.5 0 6.4-4.3 11.9-10.2 13.8"/><path d="M65.4 55.3H26c-.6 0-1 .4-1 1s.4 1 1 1h39.4c.6 0 1-.4 1-1s-.4-1-1-1"/></svg>