<svg xmlns="http://www.w3.org/2000/svg" xml:space="preserve" viewBox="0 0 100 100"><path d="M66.4 19.6c-8.8 0-15.9 6.9-16.5 15.5H25.4c-.4 0-.8.3-1 .7-2.1 7.5-6.6 25.2-7.3 32.4-.2 2.2.4 4.3 1.7 6 1 1.3 2.4 2.9 4.1 4.4 1.1 1.1 2.6 1.6 4.2 1.6H65c1.6 0 3-.6 4.2-1.6 1.7-1.5 3.1-3.1 4.1-4.4 1.3-1.7 1.9-3.9 1.7-6-.3-3.7-1.7-10.2-3.2-16.6 6.4-2.3 11.1-8.4 11.1-15.6 0-9-7.4-16.4-16.5-16.4M73 68.5c.1 1.7-.3 3.3-1.3 4.6-.9 1.2-2.3 2.7-3.9 4.2-.8.7-1.8 1.1-2.8 1.1H27.2c-1.1 0-2.1-.4-2.8-1.1-1.6-1.5-2.9-3-3.9-4.2-1-1.3-1.5-3-1.3-4.6.5-6.2 4.4-22 7-31.3H50c.5 8.6 7.7 15.5 16.5 15.5 1.2 0 2.4-.1 3.5-.4 1.4 6.5 2.7 12.8 3 16.2M51.9 37.1H66c1 3.7 2.3 8.4 3.4 13.2-1 .2-2 .3-3.1.3-7.6 0-13.9-5.9-14.4-13.5m19.5 12.6c-1.3-5.4-2.7-10.6-3.6-13.9-.1-.4-.5-.7-1-.7H51.9c.5-7.5 6.8-13.5 14.5-13.5 8 0 14.5 6.5 14.5 14.5 0 6.3-4 11.6-9.5 13.6"/><path d="M65.8 59.8H26.4c-.6 0-1 .4-1 1s.4 1 1 1h39.4c.6 0 1-.4 1-1s-.5-1-1-1"/></svg>