<svg xmlns="http://www.w3.org/2000/svg" xml:space="preserve" viewBox="0 0 100 100"><path d="M71 34.7c0-4.7-1.5-13.4-3.9-21.6-.1-.4-.5-.7-1-.7H33.8c-.4 0-.8.3-1 .7C30.6 21.3 29 30 29 34.7c0 10.9 8.4 19.9 19 20.9-1.5 1.5-2.3 4.7-2.3 7.9 0 3.8 1.1 7.6 3.2 8.5v8.5l-17.7 4.2c-.8.2-1.2.9-1.1 1.6.1.8.7 1.3 1.5 1.3h36.7c.8 0 1.4-.6 1.5-1.3.1-.8-.4-1.5-1.1-1.6L51 80.5V72c2.1-.9 3.2-4.7 3.2-8.5 0-3.2-.8-6.3-2.3-7.9 10.7-1 19.1-10 19.1-20.9m-6.9 51H35.9L50 82.3zM52.3 63.4c0 4.4-1.5 6.8-2.2 6.8s-2.2-2.4-2.2-6.8 1.5-6.8 2.2-6.8 2.2 2.5 2.2 6.8M50 53.7c-10.5 0-19-8.5-19-19 0-4.4 1.4-12.5 3.6-20.4h30.8c2.1 7.8 3.6 15.9 3.6 20.4 0 10.5-8.5 19-19 19"/><path d="M64.8 33H35.5c-.6 0-1 .4-1 1s.4 1 1 1h29.3c.6 0 1-.4 1-1s-.4-1-1-1"/></svg>