<svg xmlns="http://www.w3.org/2000/svg" xml:space="preserve" viewBox="27.06 12.4 45.79 75.2"><path d="M71.4 43.2c1.1-1.4 1.6-3.1 1.4-4.8-.5-5.6-4-19.5-5.7-25.3-.1-.4-.5-.7-1-.7H33.8c-.4 0-.8.3-1 .7-1.6 5.8-5.2 19.7-5.7 25.3-.2 1.7.3 3.5 1.4 4.8C31.4 47 40.4 55 49 55.6v24.9l-17.7 4.2c-.8.2-1.2.9-1.1 1.6.1.8.7 1.3 1.5 1.3h36.7c.8 0 1.4-.6 1.5-1.3.1-.8-.4-1.5-1.1-1.6L51 80.5V55.6c8.6-.6 17.6-8.6 20.4-12.4m-7.3 42.5H35.9L50 82.3zM50 53.7c-7.7 0-16.7-7.6-19.8-11.7-.8-1-1.1-2.2-1-3.5.4-4.8 3.4-17 5.4-24.3h30.8c2 7.3 5 19.5 5.4 24.3.1 1.2-.2 2.5-1 3.5-3.1 4.1-12.1 11.7-19.8 11.7"/><path d="M65.1 32.8H34.9c-.6 0-1 .4-1 1s.4 1 1 1h30.3c.6 0 1-.4 1-1s-.5-1-1.1-1"/></svg>