<svg xmlns="http://www.w3.org/2000/svg" viewBox="0 0 32 32" fill="none">
  <!-- Cocktail glass background circle -->
  <circle cx="16" cy="16" r="16" fill="#1e293b"/>
  
  <!-- Cocktail glass -->
  <path d="M10 8 L22 8 L20 12 L20 20 C20 21.1 19.1 22 18 22 L14 22 C12.9 22 12 21.1 12 20 L12 12 L10 8 Z" fill="#f8fafc" stroke="#94a3b8" stroke-width="0.5"/>
  
  <!-- Cocktail liquid -->
  <path d="M12.2 12 L19.8 12 L19.6 18 C19.6 18.8 18.9 19.5 18.1 19.5 L13.9 19.5 C13.1 19.5 12.4 18.8 12.4 18 L12.2 12 Z" fill="#3b82f6"/>
  
  <!-- Glass stem -->
  <rect x="15.5" y="22" width="1" height="4" fill="#f8fafc"/>
  
  <!-- Glass base -->
  <ellipse cx="16" cy="26.5" rx="3" ry="0.8" fill="#f8fafc"/>
  
  <!-- Garnish (olive) -->
  <circle cx="17" cy="14" r="1" fill="#22c55e"/>
  
  <!-- Cocktail pick -->
  <line x1="15.5" y1="13" x2="18.5" y2="15" stroke="#d97706" stroke-width="0.3"/>
</svg>
